<svg width="16" height="16" viewBox="0 0 16 16" fill="none" xmlns="http://www.w3.org/2000/svg">
<g clip-path="url(#clip0_1916_102481)">
<g clip-path="url(#clip1_1916_102481)">
<path d="M0.967773 8C0.967773 8.92336 1.14964 9.83767 1.503 10.6907C1.85635 11.5438 2.37427 12.3189 3.02718 12.9718C3.68009 13.6248 4.45521 14.1427 5.30828 14.496C6.16135 14.8494 7.07567 15.0313 7.99902 15.0313C8.92238 15.0313 9.8367 14.8494 10.6898 14.496C11.5428 14.1427 12.318 13.6248 12.9709 12.9718C13.6238 12.3189 14.1417 11.5438 14.4951 10.6907C14.8484 9.83767 15.0303 8.92336 15.0303 8C15.0303 7.07664 14.8484 6.16233 14.4951 5.30926C14.1417 4.45619 13.6238 3.68107 12.9709 3.02816C12.318 2.37524 11.5428 1.85733 10.6898 1.50397C9.8367 1.15062 8.92238 0.96875 7.99902 0.96875C7.07567 0.96875 6.16135 1.15062 5.30828 1.50397C4.45521 1.85733 3.68009 2.37524 3.02718 3.02816C2.37427 3.68107 1.85635 4.45619 1.503 5.30926C1.14964 6.16233 0.967773 7.07664 0.967773 8Z" stroke="#344054" stroke-linecap="round" stroke-linejoin="round"/>
<path d="M7.06152 7.53125C7.06152 7.77989 7.1603 8.01835 7.33611 8.19416C7.51193 8.36998 7.75038 8.46875 7.99902 8.46875C8.24766 8.46875 8.48612 8.36998 8.66194 8.19416C8.83775 8.01835 8.93652 7.77989 8.93652 7.53125C8.93652 7.28261 8.83775 7.04415 8.66194 6.86834C8.48612 6.69252 8.24766 6.59375 7.99902 6.59375C7.75038 6.59375 7.51193 6.69252 7.33611 6.86834C7.1603 7.04415 7.06152 7.28261 7.06152 7.53125Z" stroke="#344054" stroke-linecap="round" stroke-linejoin="round"/>
<path d="M10.8115 11.2813C10.8115 11.5299 10.7128 11.7683 10.5369 11.9442C10.3611 12.12 10.1227 12.2188 9.87402 12.2188H6.12402C5.87538 12.2188 5.63693 12.12 5.46111 11.9442C5.2853 11.7683 5.18652 11.5299 5.18652 11.2813C5.18652 11.0326 5.2853 10.7942 5.46111 10.6183C5.63693 10.4425 5.87538 10.3438 6.12402 10.3438H9.87402C10.1227 10.3438 10.3611 10.4425 10.5369 10.6183C10.7128 10.7942 10.8115 11.0326 10.8115 11.2813Z" stroke="#344054" stroke-linecap="round" stroke-linejoin="round"/>
<path d="M6.23535 2.6875L6.55598 3.56813" stroke="#344054" stroke-linecap="round" stroke-linejoin="round"/>
<path d="M3.53418 4.95312L4.34605 5.42188" stroke="#344054" stroke-linecap="round" stroke-linejoin="round"/>
<path d="M2.9209 8.42875L3.84465 8.26562" stroke="#344054" stroke-linecap="round" stroke-linejoin="round"/>
<path d="M9.76301 2.6875L9.44238 3.56813" stroke="#344054" stroke-linecap="round" stroke-linejoin="round"/>
<path d="M12.4653 4.95312L8.81152 7.0625" stroke="#344054" stroke-linecap="round" stroke-linejoin="round"/>
<path d="M13.0771 8.42875L12.1533 8.26562" stroke="#344054" stroke-linecap="round" stroke-linejoin="round"/>
</g>
</g>
<defs>
<clipPath id="clip0_1916_102481">
<rect width="16" height="16" fill="white"/>
</clipPath>
<clipPath id="clip1_1916_102481">
<rect width="16" height="16" fill="white" transform="translate(-0.000976562)"/>
</clipPath>
</defs>
</svg>
