<svg width="24" height="24" viewBox="0 0 24 24" fill="none" xmlns="http://www.w3.org/2000/svg">
<g clip-path="url(#clip0_1916_102694)">
<path d="M1.45313 12C1.45312 13.385 1.72593 14.7565 2.25596 16.0361C2.78599 17.3157 3.56287 18.4784 4.54223 19.4578C5.5216 20.4371 6.68428 21.214 7.96389 21.744C9.24349 22.2741 10.615 22.5469 12 22.5469C13.385 22.5469 14.7565 22.2741 16.0361 21.744C17.3157 21.214 18.4784 20.4371 19.4578 19.4578C20.4371 18.4784 21.214 17.3157 21.744 16.0361C22.2741 14.7565 22.5469 13.385 22.5469 12C22.5469 10.615 22.2741 9.24349 21.744 7.96389C21.214 6.68428 20.4371 5.5216 19.4578 4.54223C18.4784 3.56287 17.3157 2.78599 16.0361 2.25596C14.7565 1.72593 13.385 1.45313 12 1.45312C10.615 1.45313 9.24349 1.72593 7.96389 2.25596C6.68428 2.78599 5.5216 3.56287 4.54223 4.54223C3.56287 5.5216 2.78599 6.68428 2.25596 7.96389C1.72593 9.24349 1.45312 10.615 1.45313 12Z" stroke="#344054" stroke-width="1.5" stroke-linecap="round" stroke-linejoin="round"/>
<path d="M10.5938 11.2969C10.5938 11.6698 10.7419 12.0275 11.0056 12.2912C11.2694 12.555 11.627 12.7031 12 12.7031C12.373 12.7031 12.7306 12.555 12.9944 12.2912C13.2581 12.0275 13.4062 11.6698 13.4062 11.2969C13.4062 10.9239 13.2581 10.5662 12.9944 10.3025C12.7306 10.0388 12.373 9.89062 12 9.89062C11.627 9.89062 11.2694 10.0388 11.0056 10.3025C10.7419 10.5662 10.5938 10.9239 10.5938 11.2969Z" stroke="#344054" stroke-width="1.5" stroke-linecap="round" stroke-linejoin="round"/>
<path d="M16.2188 16.9219C16.2188 17.2948 16.0706 17.6525 15.8069 17.9162C15.5431 18.18 15.1855 18.3281 14.8125 18.3281H9.1875C8.81454 18.3281 8.45685 18.18 8.19313 17.9162C7.92941 17.6525 7.78125 17.2948 7.78125 16.9219C7.78125 16.5489 7.92941 16.1912 8.19313 15.9275C8.45685 15.6638 8.81454 15.5156 9.1875 15.5156H14.8125C15.1855 15.5156 15.5431 15.6638 15.8069 15.9275C16.0706 16.1912 16.2188 16.5489 16.2188 16.9219Z" stroke="#344054" stroke-width="1.5" stroke-linecap="round" stroke-linejoin="round"/>
<path d="M9.35449 4.03125L9.83543 5.35219" stroke="#344054" stroke-width="1.5" stroke-linecap="round" stroke-linejoin="round"/>
<path d="M5.30273 7.42969L6.52055 8.13281" stroke="#344054" stroke-width="1.5" stroke-linecap="round" stroke-linejoin="round"/>
<path d="M4.38281 12.6431L5.76844 12.3984" stroke="#344054" stroke-width="1.5" stroke-linecap="round" stroke-linejoin="round"/>
<path d="M14.646 4.03125L14.165 5.35219" stroke="#344054" stroke-width="1.5" stroke-linecap="round" stroke-linejoin="round"/>
<path d="M18.6994 7.42969L13.2188 10.5938" stroke="#344054" stroke-width="1.5" stroke-linecap="round" stroke-linejoin="round"/>
<path d="M19.6171 12.6431L18.2314 12.3984" stroke="#344054" stroke-width="1.5" stroke-linecap="round" stroke-linejoin="round"/>
</g>
<defs>
<clipPath id="clip0_1916_102694">
<rect width="24" height="24" fill="white"/>
</clipPath>
</defs>
</svg>
